<svg width="20" height="20" viewBox="0 0 20 20" fill="none" xmlns="http://www.w3.org/2000/svg">
<path d="M6.66602 1.66699H3.33268C2.41221 1.66699 1.66602 2.41318 1.66602 3.33366V16.667C1.66602 17.5875 2.41221 18.3337 3.33268 18.3337H6.66602C7.58649 18.3337 8.33268 17.5875 8.33268 16.667V3.33366C8.33268 2.41318 7.58649 1.66699 6.66602 1.66699Z" stroke="#959596" stroke-width="2" stroke-linecap="round" stroke-linejoin="round"/>
<path d="M16.666 1.66699H13.3327C12.4122 1.66699 11.666 2.41318 11.666 3.33366V6.66699C11.666 7.58747 12.4122 8.33366 13.3327 8.33366H16.666C17.5865 8.33366 18.3327 7.58747 18.3327 6.66699V3.33366C18.3327 2.41318 17.5865 1.66699 16.666 1.66699Z" stroke="#959596" stroke-width="2" stroke-linecap="round" stroke-linejoin="round"/>
<path d="M16.666 11.667H13.3327C12.4122 11.667 11.666 12.4132 11.666 13.3337V16.667C11.666 17.5875 12.4122 18.3337 13.3327 18.3337H16.666C17.5865 18.3337 18.3327 17.5875 18.3327 16.667V13.3337C18.3327 12.4132 17.5865 11.667 16.666 11.667Z" stroke="#959596" stroke-width="2" stroke-linecap="round" stroke-linejoin="round"/>
</svg>
